<?xml version="1.0" encoding="UTF-8"?><svg id="a" xmlns="http://www.w3.org/2000/svg" xmlns:xlink="http://www.w3.org/1999/xlink" viewBox="0 0 165 171"><defs><style>.c{fill:url(#b);}.d{fill:#ff6f91;}</style><linearGradient id="b" x1="1" y1="71" x2="164" y2="71" gradientTransform="matrix(1, 0, 0, 1, 0, 0)" gradientUnits="userSpaceOnUse"><stop offset="0" stop-color="#ff6f91"/><stop offset="1" stop-color="#845ec2"/></linearGradient></defs><path d="M158,141c-1.41,0-2.8-.5-3.91-1.45l-49.42-42.52-13.52,13.49c-2.34,2.34-6.13,2.34-8.48,0l-32.72-32.64L13,106.6v10.29c0,3.31-2.69,6-6,6s-6-2.69-6-6v-13.23c0-1.85,.85-3.6,2.32-4.74l43.44-33.78c2.39-1.86,5.78-1.64,7.92,.49l32.23,32.15,13.22-13.19c2.22-2.22,5.77-2.35,8.15-.3l43.72,37.62V13H13v56c0,3.31-2.69,6-6,6s-6-2.69-6-6V7C1,3.69,3.69,1,7,1H158c3.31,0,6,2.69,6,6V135c0,2.35-1.37,4.48-3.5,5.45-.8,.37-1.65,.55-2.5,.55Zm-24-96c0-10.48-8.52-19-19-19s-19,8.52-19,19,8.52,19,19,19,19-8.52,19-19Zm-12,0c0,3.86-3.14,7-7,7s-7-3.14-7-7,3.14-7,7-7,7,3.14,7,7Z" style="fill:url(#b);"/><g><path d="M10.97,160.5c-1.9,0-3.6-.36-5.09-1.08-1.49-.72-2.68-1.7-3.56-2.93-.88-1.23-1.32-2.62-1.32-4.17,0-2.5,1.02-4.48,3.06-5.94,2.04-1.46,4.75-2.45,8.12-2.98l6.59-1v-.74c0-1.27-.26-2.23-.79-2.9-.53-.67-1.49-1-2.9-1-.98,0-1.79,.19-2.4,.58-.62,.39-1.1,.92-1.45,1.58-.32,.46-.76,.69-1.32,.69H4.01c-.39,0-.69-.11-.9-.34s-.3-.5-.26-.82c0-.63,.24-1.36,.71-2.19,.47-.83,1.2-1.64,2.19-2.45,.98-.81,2.25-1.48,3.8-2.01,1.55-.53,3.41-.79,5.59-.79s4.24,.26,5.85,.79c1.62,.53,2.93,1.27,3.93,2.22,1,.95,1.75,2.07,2.24,3.35,.49,1.29,.74,2.7,.74,4.25v16.04c0,.39-.13,.7-.4,.95-.26,.25-.57,.37-.92,.37h-6.12c-.39,0-.7-.12-.95-.37-.25-.25-.37-.56-.37-.95v-1.85c-.46,.67-1.07,1.28-1.85,1.85-.77,.56-1.68,1.01-2.72,1.35-1.04,.33-2.24,.5-3.61,.5Zm2.48-6.02c1.02,0,1.94-.22,2.77-.66,.83-.44,1.48-1.13,1.95-2.06,.47-.93,.71-2.1,.71-3.51v-.74l-4.48,.79c-1.65,.28-2.86,.71-3.61,1.29-.76,.58-1.13,1.26-1.13,2.03,0,.6,.18,1.11,.53,1.53,.35,.42,.81,.75,1.37,.98,.56,.23,1.2,.34,1.9,.34Z" style="fill:#ff6f91;"/><path d="M41.99,160.5c-2.29,0-4.23-.25-5.83-.76-1.6-.51-2.9-1.13-3.9-1.87-1-.74-1.75-1.5-2.24-2.3-.49-.79-.76-1.47-.79-2.03-.04-.39,.09-.71,.37-.98s.58-.4,.9-.4h6.01c.11,0,.19,.02,.26,.05,.07,.04,.18,.11,.32,.21,.46,.25,.91,.55,1.37,.92,.46,.37,.98,.69,1.58,.98,.6,.28,1.32,.42,2.16,.42,.98,0,1.81-.19,2.48-.58,.67-.39,1-.97,1-1.74,0-.56-.16-1.03-.47-1.4-.32-.37-.96-.73-1.93-1.08-.97-.35-2.42-.7-4.35-1.06-1.83-.42-3.43-.98-4.8-1.66s-2.43-1.58-3.16-2.69c-.74-1.11-1.11-2.45-1.11-4.04,0-1.41,.46-2.76,1.37-4.06,.91-1.3,2.25-2.37,4.01-3.19,1.76-.83,3.92-1.24,6.49-1.24,2.04,0,3.81,.24,5.3,.71,1.49,.48,2.76,1.08,3.8,1.82,1.04,.74,1.82,1.5,2.35,2.27s.81,1.48,.84,2.11c.04,.35-.07,.66-.32,.92-.25,.26-.53,.4-.84,.4h-5.49c-.14,0-.28-.03-.42-.08-.14-.05-.26-.11-.37-.18-.42-.21-.84-.49-1.27-.84-.42-.35-.91-.67-1.48-.95-.56-.28-1.27-.42-2.11-.42-.95,0-1.69,.21-2.22,.63-.53,.42-.79,.97-.79,1.64,0,.46,.15,.88,.45,1.27,.3,.39,.91,.74,1.85,1.06,.93,.32,2.38,.67,4.35,1.06,2.43,.39,4.36,1.01,5.8,1.87,1.44,.86,2.46,1.87,3.06,3.01,.6,1.14,.9,2.35,.9,3.62,0,1.69-.5,3.19-1.5,4.49-1,1.3-2.49,2.31-4.46,3.04-1.97,.72-4.36,1.08-7.17,1.08Z" style="fill:#ff6f91;"/><path d="M60.71,170c-.32,0-.58-.11-.79-.32s-.32-.47-.32-.79c0-.07,0-.17,.03-.29,.02-.12,.06-.26,.13-.4l4.11-9.92-10.13-23.96c-.11-.25-.16-.46-.16-.63,.07-.32,.21-.59,.42-.82,.21-.23,.47-.34,.79-.34h6.01c.46,0,.79,.11,1,.34,.21,.23,.37,.48,.47,.77l6.07,15.36,6.17-15.36c.14-.28,.32-.54,.55-.77,.23-.23,.57-.34,1.03-.34h5.91c.32,0,.59,.11,.82,.34,.23,.23,.34,.48,.34,.77,0,.18-.05,.4-.16,.69l-14.93,34.57c-.11,.28-.28,.54-.53,.77-.25,.23-.6,.34-1.05,.34h-5.8Z" style="fill:#ff6f91;"/><path d="M85.24,159.97c-.39,0-.7-.12-.95-.37-.25-.25-.37-.56-.37-.95v-24.81c0-.39,.12-.7,.37-.95s.56-.37,.95-.37h6.07c.39,0,.7,.12,.95,.37,.25,.25,.37,.56,.37,.95v2.01c.91-1.09,2.11-2.01,3.59-2.74,1.48-.74,3.22-1.11,5.22-1.11s3.84,.46,5.41,1.37c1.56,.92,2.8,2.26,3.69,4.04,.9,1.78,1.34,3.95,1.34,6.52v14.72c0,.39-.13,.7-.4,.95-.26,.25-.57,.37-.92,.37h-6.65c-.35,0-.66-.12-.92-.37-.26-.25-.4-.56-.4-.95v-14.41c0-1.65-.4-2.93-1.19-3.83-.79-.9-1.96-1.35-3.51-1.35-1.44,0-2.59,.45-3.46,1.35-.86,.9-1.29,2.17-1.29,3.83v14.41c0,.39-.13,.7-.4,.95-.26,.25-.57,.37-.92,.37h-6.59Z" style="fill:#ff6f91;"/><path d="M127.23,160.5c-2.6,0-4.91-.47-6.91-1.42-2-.95-3.6-2.33-4.77-4.14s-1.82-3.99-1.93-6.52c-.04-.56-.05-1.27-.05-2.14s.02-1.57,.05-2.14c.11-2.57,.74-4.76,1.9-6.57,1.16-1.81,2.75-3.19,4.77-4.14,2.02-.95,4.33-1.43,6.94-1.43,2.43,0,4.5,.34,6.22,1.03,1.72,.69,3.13,1.54,4.22,2.56,1.09,1.02,1.91,2.07,2.45,3.14,.55,1.07,.84,2.01,.87,2.82,.04,.35-.09,.66-.37,.92-.28,.26-.6,.4-.95,.4h-6.7c-.39,0-.69-.09-.9-.26-.21-.18-.4-.44-.58-.79-.42-1.09-.96-1.86-1.61-2.32-.65-.46-1.49-.69-2.51-.69-1.41,0-2.49,.46-3.24,1.37-.76,.92-1.17,2.32-1.24,4.22-.04,1.41-.04,2.66,0,3.75,.07,1.94,.48,3.34,1.24,4.22,.76,.88,1.84,1.32,3.24,1.32,1.09,0,1.95-.23,2.58-.69,.63-.46,1.14-1.23,1.53-2.32,.18-.35,.37-.62,.58-.79,.21-.18,.51-.26,.9-.26h6.7c.35,0,.67,.13,.95,.4,.28,.26,.4,.57,.37,.92-.04,.6-.21,1.29-.53,2.08-.32,.79-.81,1.63-1.48,2.51-.67,.88-1.54,1.7-2.61,2.45-1.07,.76-2.37,1.36-3.88,1.82-1.51,.46-3.27,.69-5.27,.69Z" style="fill:#ff6f91;"/></g></svg>